PathFileType	4	(X/Y/Z)	/Users/itak/Documents/Research/Walk-IL/dataset/trc/00185_00008.trc
DataRate	CameraRate	NumFrames	NumMarkers	Units	OrigDataRate	OrigDataStartFrame	OrigNumFrames
100.000000	100.000000	4	53	mm	100.000000	594	793
Frame#	Time	RPSI			LPSI			L3			STRN			T10			C7			CLAV			RBAK			LBAK			LSHO			LUPA			LAEL			LAOL			LWTS			LWPS			LFRA			LIFD			LHPS			LHTS			RSHO			RUPA			RAEL			RAOL			RWTS			RWPS			RFRA			RIFD			RHTS			RHPS			RBHD			LFHD			RFHD			LBHD			LHIP			RHIP			RASI			LASI			LKNE			LTHI			LANK			LTIP			LTOE			LMT1			LMT5			LHEE			RKNE			RTHI			RANK			RTIP			RTOE			RMT1			RMT5			RHEE			
		X1	Y1	Z1	X2	Y2	Z2	X3	Y3	Z3	X4	Y4	Z4	X5	Y5	Z5	X6	Y6	Z6	X7	Y7	Z7	X8	Y8	Z8	X9	Y9	Z9	X10	Y10	Z10	X11	Y11	Z11	X12	Y12	Z12	X13	Y13	Z13	X14	Y14	Z14	X15	Y15	Z15	X16	Y16	Z16	X17	Y17	Z17	X18	Y18	Z18	X19	Y19	Z19	X20	Y20	Z20	X21	Y21	Z21	X22	Y22	Z22	X23	Y23	Z23	X24	Y24	Z24	X25	Y25	Z25	X26	Y26	Z26	X27	Y27	Z27	X28	Y28	Z28	X29	Y29	Z29	X30	Y30	Z30	X31	Y31	Z31	X32	Y32	Z32	X33	Y33	Z33	X34	Y34	Z34	X35	Y35	Z35	X36	Y36	Z36	X37	Y37	Z37	X38	Y38	Z38	X39	Y39	Z39	X40	Y40	Z40	X41	Y41	Z41	X42	Y42	Z42	X43	Y43	Z43	X44	Y44	Z44	X45	Y45	Z45	X46	Y46	Z46	X47	Y47	Z47	X48	Y48	Z48	X49	Y49	Z49	X50	Y50	Z50	X51	Y51	Z51	X52	Y52	Z52	X53	Y53	Z53	

595	5.94	-1072.794555664062	1027.969848632812	346.2293701171875	-956.0689697265625	1025.58642578125	305.9092407226562	-1014.571105957031	1064.357299804688	321.6511535644531	-925.8890991210938	1282.880126953125	572.82568359375	-1000.84814453125	1230.82373046875	274.5751037597656	-952.1428833007812	1496.68701171875	344.6518249511719	-917.4033813476562	1397.88427734375	546.104736328125	-1088.933227539062	1331.526245117188	302.4253540039062	-856.4312744140625	1471.10400390625	315.1577453613281	-765.787109375	1458.309692382812	376.9999084472656	-699.6481323242188	1322.88037109375	344.4646911621094	-677.3845825195312	1108.666870117188	401.987548828125	-752.8814697265625	1080.820678710938	363.9454040527344	-707.6026000976562	962.3577270507812	611.4487915039062	-675.820556640625	898.4036254882812	550.8712158203125	-666.6422119140625	1012.30224609375	463.2716674804688	-730.6498413085938	817.356689453125	724.1485595703125	-679.3392944335938	851.545654296875	606.5769653320312	-686.68896484375	900.4061889648438	660.5862426757812	-1114.090454101562	1491.13525390625	447.7312316894531	-1190.554565429688	1433.751708984375	444.3896789550781	-1292.482421875	1162.6982421875	432.2838745117188	-1197.282104492188	1136.005126953125	414.2129211425781	-1289.402709960938	936.4956665039062	574.5444946289062	-1349.125366210938	926.3468017578125	508.1885375976562	-1318.094482421875	1093.983520507812	462.1261291503906	-1290.414184570312	746.0464477539062	586.2786254882812	-1307.954345703125	843.7418212890625	603.8088989257812	-1354.412963867188	843.640869140625	537.8665771484375	-997.7327880859375	1662.052856445312	482.1908569335938	-790.9891357421875	1660.862548828125	546.9657592773438	-894.8792724609375	1668.076171875	623.5767822265625	-891.452880859375	1663.046997070312	396.6332092285156	-815.9623413085938	963.6363525390625	373.3361206054688	-1145.56396484375	1000.692260742188	536.6024780273438	-1069.58447265625	1037.537963867188	593.8299560546875	-822.2882080078125	1011.020751953125	508.333251953125	-928.2415161132812	475.3634033203125	414.13232421875	-873.9766845703125	614.23583984375	409.3040771484375	-1046.5390625	44.9406623840332	277.8741760253906	-977.7643432617188	256.610107421875	351.6480407714844	-1035.239013671875	36.71896362304688	498.2496643066406	-1092.087280273438	36.88887405395508	457.5292053222656	-991.3597412109375	39.28547286987305	378.1980895996094	-1121.999633789062	49.24618148803711	238.7741394042969	-1073.261596679688	546.2435302734375	740.3221435546875	-1120.968017578125	802.7134399414062	660.5344848632812	-1109.23486328125	50.05063629150391	789.2564697265625	-1057.173095703125	430.2382507324219	778.2301635742188	-999.1189575195312	115.5763244628906	972.8136596679688	-972.4080810546875	101.7821350097656	909.0227661132812	-1088.99853515625	61.17977905273438	908.984619140625	-1059.267456054688	34.98844528198242	723.7599487304688	
596	5.95	-1072.021484375	1026.700927734375	355.755859375	-956.011962890625	1024.60546875	313.6064758300781	-1014.336303710938	1063.165893554688	330.2910461425781	-922.7466430664062	1281.693725585938	580.384521484375	-1001.531677246094	1229.72509765625	283.1538696289062	-952.255615234375	1495.603515625	352.6696166992188	-914.6937866210938	1396.675415039062	553.5693359375	-1089.43212890625	1330.229858398438	312.1568603515625	-856.8667602539062	1470.13330078125	321.89404296875	-765.3709106445312	1457.282470703125	382.5040893554688	-699.7144775390625	1321.83447265625	349.0216064453125	-677.3071899414062	1107.358276367188	406.032958984375	-753.2680053710938	1079.837280273438	368.6017150878906	-706.2605590820312	959.9086303710938	614.977783203125	-675.1200561523438	896.2460327148438	553.7379760742188	-666.2838134765625	1010.635559082031	466.7337036132812	-728.8886108398438	814.2093505859375	726.9171752929688	-678.3599853515625	849.0400390625	609.1746826171875	-685.2125244140625	897.5633544921875	663.5633544921875	-1112.8369140625	1489.710571289062	457.8739318847656	-1189.225952148438	1432.305419921875	455.3300476074219	-1290.9775390625	1161.232299804688	444.080322265625	-1195.570434570312	1134.43115234375	425.504150390625	-1287.123046875	934.2173461914062	584.9992065429688	-1347.494140625	924.7044677734375	519.12548828125	-1316.413208007812	1092.48388671875	473.842529296875	-1288.832397460938	743.7546997070312	595.6663818359375	-1305.7890625	841.4053344726562	613.9728393554688	-1352.83935546875	841.8641967773438	548.3733520507812	-996.3177490234375	1660.886108398438	490.3940124511719	-788.8763427734375	1659.879638671875	553.2991943359375	-892.278564453125	1666.971435546875	630.888427734375	-890.754150390625	1661.956298828125	403.8828735351562	-814.3167724609375	963.1019897460938	379.0462646484375	-1142.78857421875	999.4432983398438	547.4347534179688	-1065.585327148438	1035.965087890625	602.9617919921875	-819.5419311523438	1010.072692871094	514.3765869140625	-926.6420288085938	474.860595703125	418.0634460449219	-872.2290649414062	613.7607421875	413.7264404296875	-1046.911254882812	45.72339630126953	278.0942077636719	-977.3023681640625	256.7288208007812	353.6044616699219	-1035.142333984375	36.70599746704102	498.2691955566406	-1091.986450195312	36.88479232788086	457.6512756347656	-991.4345703125	39.35171508789062	378.3141784667969	-1122.475219726562	50.62714004516602	239.1932220458984	-1066.636108398438	545.8865966796875	750.3157348632812	-1116.495361328125	801.5153198242188	670.558837890625	-1091.268920898438	48.6602783203125	815.9439697265625	-1048.042358398438	431.3121032714844	790.5488891601562	-978.5899047851562	121.8374481201172	992.2230224609375	-953.6638793945312	107.0382766723633	927.964599609375	-1069.300537109375	64.15390014648438	933.0587158203125	-1045.555297851562	35.0699462890625	747.1239624023438	
597	5.96	-1071.020141601562	1025.41845703125	365.3875427246094	-955.8626098632812	1023.655822753906	321.3631591796875	-1013.944091796875	1061.98779296875	339.02783203125	-919.6177368164062	1280.514526367188	587.9937133789062	-1002.145751953125	1228.642944335938	291.7934265136719	-952.2752685546875	1494.530029296875	360.8008422851562	-911.97607421875	1395.484008789062	561.1157836914062	-1089.800903320312	1328.962280273438	321.9509887695312	-857.214111328125	1469.180541992188	328.7797241210938	-764.9049682617188	1456.2548828125	388.1644897460938	-699.7409057617188	1320.794677734375	353.6964721679688	-677.2727661132812	1106.003662109375	410.0150146484375	-753.6959838867188	1078.857055664062	373.1855773925781	-704.9205932617188	957.0787353515625	618.189697265625	-674.4700927734375	893.8124389648438	556.1762084960938	-665.9882202148438	1008.832153320312	469.9707336425781	-727.1195068359375	810.51025390625	729.1257934570312	-677.414306640625	846.1695556640625	611.2539672851562	-683.7389526367188	894.2623291015625	666.1061401367188	-1111.506469726562	1488.306030273438	468.0476684570312	-1187.808837890625	1430.882934570312	466.2441711425781	-1289.340576171875	1159.751953125	455.7511596679688	-1193.706665039062	1132.87744140625	436.7840881347656	-1284.704711914062	932.0073852539062	595.4531860351562	-1345.641479492188	923.0474853515625	530.0149536132812	-1314.5908203125	1090.955200195312	485.4345703125	-1287.00537109375	741.5628051757812	605.2194213867188	-1303.454345703125	839.1503295898438	624.2062377929688	-1351.03564453125	840.102294921875	558.8909912109375	-994.8441772460938	1659.74365234375	498.6741638183594	-786.7318115234375	1658.908081054688	559.7273559570312	-889.6348266601562	1665.891967773438	638.2705078125	-889.9947509765625	1660.8740234375	411.2291870117188	-812.695068359375	962.609130859375	384.8972473144531	-1139.831176757812	998.10009765625	558.0445556640625	-1061.351196289062	1034.22265625	611.8522338867188	-816.7628173828125	1009.145202636719	520.5736694335938	-924.96875	474.3909606933594	422.1632385253906	-870.43701171875	613.3260498046875	418.2975463867188	-1047.311767578125	46.64357376098633	278.3466186523438	-976.859375	256.9155578613281	355.6632385253906	-1035.045776367188	36.69705200195312	498.2854309082031	-1091.884399414062	36.88192749023438	457.797119140625	-991.5772094726562	39.40607070922852	378.4189453125	-1122.980346679688	52.22754287719727	239.6717071533203	-1060.028564453125	545.5140991210938	760.121337890625	-1112.074829101562	800.2489624023438	680.4854125976562	-1072.364624023438	46.74420928955078	842.4210205078125	-1038.933471679688	432.4072570800781	802.4996948242188	-958.3480224609375	128.24560546875	1010.497192382812	-935.178466796875	112.4458160400391	945.8806762695312	-1049.841674804688	67.64958190917969	955.6248168945312	-1031.68017578125	35.56642150878906	769.5147094726562	
598	5.97	-1069.786865234375	1024.131591796875	375.1520385742188	-955.6273193359375	1022.74951171875	329.1867065429688	-1013.397399902344	1060.834350585938	347.8743896484375	-916.4916381835938	1279.355590820312	595.6599731445312	-1002.704223632812	1227.586547851562	300.490234375	-952.2014770507812	1493.478637695312	369.0382385253906	-909.2517700195312	1394.323974609375	568.7493896484375	-1090.035400390625	1327.730224609375	331.8144226074219	-857.4730224609375	1468.255981445312	335.8118286132812	-764.379150390625	1455.247924804688	393.9790649414062	-699.7222900390625	1319.775390625	358.4899597167969	-677.28173828125	1104.63037109375	413.9580078125	-754.1605224609375	1077.9013671875	377.7146606445312	-703.59423828125	953.8890380859375	621.0945434570312	-673.8720703125	891.133056640625	558.2020263671875	-665.758544921875	1006.92236328125	473.0068054199219	-725.3480834960938	806.2693481445312	730.7633666992188	-676.4954833984375	842.9654541015625	612.8252563476562	-682.2694702148438	890.5282592773438	668.2217407226562	-1110.097290039062	1486.932739257812	478.2538452148438	-1186.316162109375	1429.495727539062	477.1536865234375	-1287.583984375	1158.276000976562	467.3143615722656	-1191.7998046875	1131.380981445312	447.9563903808594	-1282.13525390625	929.8760986328125	605.9107055664062	-1343.571166992188	921.3888549804688	540.8765258789062	-1312.63232421875	1089.420166015625	496.9256591796875	-1284.90283203125	739.4655151367188	614.9204711914062	-1300.926391601562	836.9745483398438	634.5084228515625	-1348.991455078125	838.3640747070312	569.4306030273438	-993.3092041015625	1658.634643554688	507.0405883789062	-784.5686645507812	1657.9521484375	566.2650756835938	-886.9449462890625	1664.841796875	645.7308959960938	-889.1773071289062	1659.816040039062	418.6804504394531	-811.1297607421875	962.1732177734375	390.897216796875	-1136.677734375	996.6791381835938	568.4674682617188	-1056.95361328125	1032.394775390625	620.6487426757812	-813.9373168945312	1008.237731933594	526.9286499023438	-923.2113647460938	473.9624633789062	426.4215087890625	-868.59228515625	612.9422607421875	423.0048828125	-1047.73583984375	47.70651245117188	278.6369018554688	-976.40185546875	257.1883239746094	357.8209838867188	-1034.94775390625	36.69185638427734	498.2982788085938	-1091.78125	36.88251113891602	457.968994140625	-991.7720336914062	39.45039749145508	378.5116577148438	-1123.514770507812	54.06584167480469	240.2151489257812	-1053.434326171875	545.1336669921875	769.7584228515625	-1107.656127929688	798.9247436523438	690.3240966796875	-1052.80517578125	44.39191818237305	868.5436401367188	-1029.875366210938	433.508544921875	814.1026611328125	-938.5036010742188	134.6996612548828	1027.690673828125	-917.0546264648438	117.9398040771484	962.7905883789062	-1030.801879882812	71.60917663574219	976.6597900390625	-1017.773193359375	36.4064826965332	790.910888671875	
